HIERARCHY
ROOT Hips
{
 OFFSET 0.000000 0.000000 0.000000
 CHANNELS 6 Xposition Yposition Zposition Yrotation Xrotation Zrotation
 JOINT Chest
 {
  OFFSET 0.000000 11.395451 -0.039534
  CHANNELS 3 Yrotation Xrotation Zrotation
  JOINT Chest2
  {
   OFFSET 0.000000 9.398669 0.071813
   CHANNELS 3 Yrotation Xrotation Zrotation
   JOINT Chest3
   {
    OFFSET 0.000000 8.489801 0.000000
    CHANNELS 3 Yrotation Xrotation Zrotation
    JOINT Chest4
    {
     OFFSET 0.000000 8.489801 0.000000
     CHANNELS 3 Yrotation Xrotation Zrotation
     JOINT Neck
     {
      OFFSET 0.000000 12.404889 0.000000
      CHANNELS 3 Yrotation Xrotation Zrotation
      JOINT Head
      {
       OFFSET 0.000000 8.903270 0.092239
       CHANNELS 3 Yrotation Xrotation Zrotation
       End Site
       {
        OFFSET 0.000000 17.592497 0.007158
       }
      }
     }
     JOINT RightCollar
     {
      OFFSET -3.196775 6.966722 0.000000
      CHANNELS 3 Yrotation Xrotation Zrotation
      JOINT RightShoulder
      {
       OFFSET -15.955896 0.000000 0.000000
       CHANNELS 3 Yrotation Xrotation Zrotation
       JOINT RightElbow
       {
        OFFSET -24.792472 0.000000 0.000000
        CHANNELS 3 Yrotation Xrotation Zrotation
        JOINT RightWrist
        {
         OFFSET -20.900115 0.000000 0.025002
         CHANNELS 3 Yrotation Xrotation Zrotation
         End Site
         {
          OFFSET -16.056692 0.000000 0.000000
         }
        }
       }
      }
     }
     JOINT LeftCollar
     {
      OFFSET 3.196775 6.966722 0.000000
      CHANNELS 3 Yrotation Xrotation Zrotation
      JOINT LeftShoulder
      {
       OFFSET 15.955896 0.000000 0.000000
       CHANNELS 3 Yrotation Xrotation Zrotation
       JOINT LeftElbow
       {
        OFFSET 24.792472 0.000000 0.000000
        CHANNELS 3 Yrotation Xrotation Zrotation
        JOINT LeftWrist
        {
         OFFSET 20.900115 0.000000 0.025002
         CHANNELS 3 Yrotation Xrotation Zrotation
         End Site
         {
          OFFSET 16.056692 0.000000 0.000000
         }
        }
       }
      }
     }
    }
   }
  }
 }
 JOINT RightHip
 {
  OFFSET -9.568995 0.193718 0.019767
  CHANNELS 3 Yrotation Xrotation Zrotation
  JOINT RightKnee
  {
   OFFSET 0.000000 -56.649296 0.015402
   CHANNELS 3 Yrotation Xrotation Zrotation
   JOINT RightAnkle
   {
    OFFSET 0.000000 -41.365147 0.021264
    CHANNELS 3 Yrotation Xrotation Zrotation
    JOINT RightToe
    {
     OFFSET 0.000000 -7.465940 17.672538
     CHANNELS 3 Yrotation Xrotation Zrotation
     End Site
     {
      OFFSET 0.000000 -1.736315 7.837145
     }
    }
   }
  }
 }
 JOINT LeftHip
 {
  OFFSET 9.568995 0.193718 0.019767
  CHANNELS 3 Yrotation Xrotation Zrotation
  JOINT LeftKnee
  {
   OFFSET 0.000000 -56.649296 0.015402
   CHANNELS 3 Yrotation Xrotation Zrotation
   JOINT LeftAnkle
   {
    OFFSET 0.000000 -41.365147 0.021264
    CHANNELS 3 Yrotation Xrotation Zrotation
    JOINT LeftToe
    {
     OFFSET 0.000000 -7.465940 17.672538
     CHANNELS 3 Yrotation Xrotation Zrotation
     End Site
     {
      OFFSET 0.000000 -1.736315 7.837145
     }
    }
   }
  }
 }
}
MOTION
Frames: 8
Frame Time: 0.016667
132.823390 106.820905 114.768911 -41.495724 -9.489912 0.248464 -3.173140 4.145454 -1.257880 -1.398086 1.850982 -0.530309 -1.398086 1.850982 -0.530309 -1.046867 1.389460 -0.393464 -2.203419 18.361686 -0.182079 -3.989355 -2.062814 0.390828 3.276734 3.287660 8.128598 3.046344 -4.992500 78.079995 8.521771 5.054901 5.143821 -4.334610 -2.671885 3.177239 -1.764918 3.449332 -9.188165 4.382394 -7.652637 -75.660529 4.478369 9.576659 0.580890 5.071971 -2.612813 -5.402894 5.135652 13.659671 1.159475 -2.011719 1.146872 -0.004865 -1.463544 -5.628999 -0.835806 0.000000 0.000000 0.000000 2.580093 13.632802 0.510862 0.771775 2.099157 0.136770 6.987340 -5.761304 -1.624060 0.000000 0.000000 0.000000
132.870355 106.793081 114.777227 -41.493720 -9.430070 0.182294 -3.161418 4.122159 -1.235600 -1.393151 1.840446 -0.520682 -1.393150 1.840446 -0.520682 -1.043205 1.381531 -0.386284 -2.332965 18.337423 -0.145573 -4.239929 -2.103412 0.501222 3.261046 3.262738 8.152551 2.912574 -4.979213 78.105414 8.106340 4.952724 4.933158 -4.324992 -2.683140 3.103332 -1.763976 3.413716 -9.150215 4.500100 -7.557188 -75.657653 4.740176 9.568449 0.723370 5.103990 -2.568954 -5.417758 5.323921 13.545587 1.213947 -2.303516 1.210282 0.039402 -1.336731 -5.666367 -0.846986 -0.000000 0.000000 -0.000000 2.548660 13.565745 0.537202 0.840445 2.091302 0.175347 6.951028 -5.785559 -1.626058 -0.000025 0.005500 -0.014387
132.917319 106.765257 114.785543 -41.491786 -9.370225 0.116137 -3.149711 4.098848 -1.213337 -1.388221 1.829904 -0.511060 -1.388221 1.829904 -0.511060 -1.039547 1.373598 -0.379107 -2.462522 18.313285 -0.109025 -4.490592 -2.143526 0.611785 3.245337 3.237822 8.176503 2.778808 -4.965866 78.130750 7.691738 4.848999 4.722423 -4.315036 -2.694927 3.029536 -1.763073 3.378088 -9.112280 4.617753 -7.461725 -75.654477 5.001758 9.559470 0.866268 5.135940 -2.524946 -5.432260 5.511880 13.431144 1.267796 -2.595257 1.274024 0.083297 -1.209909 -5.703735 -0.858206 -0.000000 0.000000 -0.000000 2.517168 13.498743 0.563614 0.909103 2.083396 0.213924 6.914720 -5.809820 -1.628060 -0.000043 0.010997 -0.028775
132.961565 106.741681 114.796160 -41.494708 -9.328111 0.057487 -3.135108 4.086480 -1.194329 -1.381941 1.824242 -0.502833 -1.381941 1.824242 -0.502833 -1.034868 1.369328 -0.372969 -2.594818 18.292213 -0.080298 -4.743704 -2.177821 0.708852 3.233741 3.222044 8.205595 2.662702 -4.958458 78.160456 7.235392 4.758348 4.485748 -4.315813 -2.699497 2.966798 -1.768174 3.358846 -9.070162 4.686945 -7.390384 -75.657159 5.183693 9.527979 0.967309 5.158726 -2.490967 -5.440926 5.675350 13.338125 1.311538 -2.874127 1.340306 0.123886 -1.068011 -5.745105 -0.865754 -0.000000 0.000000 -0.000000 2.478476 13.447605 0.580679 0.983914 2.085696 0.247758 6.885682 -5.842033 -1.631980 0.000000 0.000000 -0.000000
133.000767 106.724726 114.810267 -41.511763 -9.311851 0.009694 -3.113441 4.088567 -1.180568 -1.372433 1.825022 -0.496897 -1.372433 1.825022 -0.496897 -1.027754 1.369891 -0.368544 -2.733556 18.277664 -0.062344 -5.005009 -2.199858 0.788060 3.225561 3.221439 8.243102 2.576469 -4.963501 78.198042 6.704451 4.682359 4.204801 -4.332923 -2.693521 2.920719 -1.782059 3.363255 -9.020201 4.691107 -7.349654 -75.670063 5.255198 9.450948 1.008743 5.171019 -2.472362 -5.438301 5.819186 13.276386 1.344142 -3.149971 1.410594 0.160926 -0.896176 -5.792918 -0.867333 -0.000000 0.000000 -0.000000 2.426951 13.421754 0.583347 1.072961 2.100535 0.273625 6.871765 -5.886083 -1.640338 0.000024 -0.047375 0.114335
133.037251 106.712018 114.826675 -41.533602 -9.313341 -0.030606 -3.088848 4.101598 -1.170045 -1.361564 1.830681 -0.492351 -1.361563 1.830681 -0.492351 -1.019611 1.374117 -0.365154 -2.874999 18.266135 -0.052174 -5.268681 -2.216224 0.853767 3.221541 3.229952 8.285758 2.507909 -4.974528 78.240128 6.131625 4.617260 3.898163 -4.360946 -2.680075 2.885345 -1.801859 3.384067 -8.966031 4.646828 -7.333096 -75.689103 5.247300 9.352176 1.007853 5.174210 -2.463939 -5.430191 5.938778 13.236301 1.367183 -3.412938 1.483382 0.194638 -0.709262 -5.844740 -0.865322 0.000000 -0.000000 0.000000 2.368283 13.411747 0.576613 1.168193 2.125575 0.294767 6.865111 -5.938078 -1.650609 -0.000193 -0.111237 0.271837
133.075270 106.700681 114.844116 -41.537046 -9.325947 -0.066003 -3.070853 4.126008 -1.159993 -1.353589 1.841418 -0.487880 -1.353589 1.841418 -0.487880 -1.013635 1.382153 -0.361801 -3.010681 18.250072 -0.048680 -5.519715 -2.241259 0.905527 3.227980 3.238564 8.328898 2.438063 -4.978095 78.280892 5.572463 4.569693 3.595221 -4.394496 -2.661023 2.854212 -1.825045 3.415903 -8.914375 4.555459 -7.345457 -75.707883 5.173378 9.280499 0.974704 5.163319 -2.460118 -5.428176 5.995848 13.210596 1.375311 -3.620678 1.556320 0.222883 -0.536776 -5.897279 -0.863007 0.000000 0.000000 -0.000000 2.312326 13.405087 0.566124 1.251595 2.164062 0.316158 6.849419 -5.994298 -1.657126 -0.000503 -0.148406 0.388490
133.116909 106.689689 114.861904 -41.509109 -9.351602 -0.096276 -3.063551 4.168297 -1.150415 -1.350307 1.860132 -0.483404 -1.350308 1.860132 -0.483404 -1.011171 1.396176 -0.358412 -3.142717 18.220655 -0.052782 -5.761957 -2.291328 0.942760 3.248085 3.247606 8.371316 2.369288 -4.977166 78.318953 5.038539 4.539638 3.298447 -4.434357 -2.633910 2.824388 -1.854434 3.464190 -8.866291 4.402969 -7.400004 -75.723027 5.032310 9.257035 0.910041 5.136455 -2.457095 -5.440951 5.940470 13.202291 1.357331 -3.734536 1.628449 0.245931 -0.381122 -5.950465 -0.863238 -0.000000 0.000000 0.000000 2.264525 13.397705 0.552986 1.314722 2.224598 0.340583 6.815157 -6.057241 -1.657856 -0.000536 -0.134284 0.438605
